<?xml version="1.0" encoding="UTF-8"?>
<svg xmlns="http://www.w3.org/2000/svg" xmlns:xlink="http://www.w3.org/1999/xlink" width="566px" height="566px" viewBox="0 0 566 566" version="1.1">
<g id="surface1">
<path style=" stroke:none;fill-rule:nonzero;fill:rgb(17.254902%,38.039216%,60.392157%);fill-opacity:1;" d="M 567.925781 510.328125 C 567.925781 529.613281 567.925781 548.894531 567.925781 568.320312 C 467.132812 568.320312 366.34375 568.320312 264.925781 567.277344 C 264.351562 555.804688 265.007812 545.316406 264.308594 534.957031 C 263.378906 521.175781 266.882812 509.882812 273.015625 498.257812 C 347.109375 357.785156 420.839844 217.03125 494.65625 76.34375 C 496.621094 72.597656 498.457031 68.753906 501.230469 63.199219 C 496.609375 63.199219 493.832031 63.199219 491.058594 63.199219 C 435.582031 63.199219 380.105469 63.371094 324.632812 62.988281 C 317.492188 62.941406 313.871094 65.875 310.589844 73.261719 C 273.09375 157.679688 235.253906 241.875 197.78125 326.308594 C 195.199219 332.125 193.648438 339.359375 193.617188 345.945312 C 193.324219 415.492188 193.453125 485.039062 193.394531 554.589844 C 193.394531 559.167969 192.824219 563.742188 192.515625 568.320312 C 175.792969 568.320312 159.066406 568.320312 141.5625 567.242188 C 140.800781 492.847656 140.9375 419.53125 140.648438 346.214844 C 140.621094 339.273438 139.042969 331.644531 136.335938 325.519531 C 93.59375 228.886719 50.558594 132.4375 7.542969 35.980469 C 5.917969 32.332031 3.808594 28.996094 1.925781 25.515625 C 1.925781 17.878906 1.925781 10.242188 1.925781 2.320312 C 18.007812 2.320312 34.089844 2.320312 50.859375 3.144531 C 89.628906 91.964844 127.707031 179.957031 165.832031 267.917969 C 166.320312 269.039062 167.445312 269.757812 168.570312 270.992188 C 207.546875 180.992188 246.238281 91.65625 284.925781 2.320312 C 376.730469 2.320312 468.539062 2.320312 560.972656 3.363281 C 561.550781 15.226562 560.902344 26.101562 561.601562 36.851562 C 562.476562 50.234375 559.109375 61.21875 553.183594 72.496094 C 478.949219 213.824219 405.046875 355.402344 331.074219 496.929688 C 329.136719 500.640625 327.378906 504.488281 324.8125 509.753906 C 330.089844 509.753906 333.5625 509.753906 337.03125 509.753906 C 399.253906 509.753906 461.480469 509.71875 523.703125 509.78125 C 538.445312 509.796875 553.183594 510.136719 567.925781 510.328125 Z M 567.925781 510.328125 "/>
<path style=" stroke:none;fill-rule:nonzero;fill:rgb(99.215686%,99.607843%,99.607843%);fill-opacity:1;" d="M 193.417969 568.320312 C 192.824219 563.742188 193.394531 559.167969 193.394531 554.589844 C 193.453125 485.039062 193.324219 415.492188 193.617188 345.945312 C 193.648438 339.359375 195.199219 332.125 197.78125 326.308594 C 235.253906 241.875 273.09375 157.679688 310.589844 73.261719 C 313.871094 65.875 317.492188 62.941406 324.632812 62.988281 C 380.105469 63.371094 435.582031 63.199219 491.058594 63.199219 C 493.832031 63.199219 496.609375 63.199219 501.230469 63.199219 C 498.457031 68.753906 496.621094 72.597656 494.65625 76.34375 C 420.839844 217.03125 347.109375 357.785156 273.015625 498.257812 C 266.882812 509.882812 263.378906 521.175781 264.308594 534.957031 C 265.007812 545.316406 264.351562 555.804688 264.023438 567.277344 C 240.605469 568.320312 217.464844 568.320312 193.417969 568.320312 Z M 193.417969 568.320312 "/>
<path style=" stroke:none;fill-rule:nonzero;fill:rgb(99.215686%,99.607843%,100%);fill-opacity:1;" d="M 567.925781 509.242188 C 553.183594 510.136719 538.445312 509.796875 523.703125 509.78125 C 461.480469 509.71875 399.253906 509.753906 337.03125 509.753906 C 333.5625 509.753906 330.089844 509.753906 324.8125 509.753906 C 327.378906 504.488281 329.136719 500.640625 331.074219 496.929688 C 405.046875 355.402344 478.949219 213.824219 553.183594 72.496094 C 559.109375 61.21875 562.476562 50.234375 561.601562 36.851562 C 560.902344 26.101562 561.550781 15.226562 561.875 3.363281 C 564.070312 2.320312 565.992188 2.320312 567.917969 2.320312 C 567.925781 170.929688 567.925781 339.542969 567.925781 509.242188 Z M 567.925781 509.242188 "/>
<path style=" stroke:none;fill-rule:nonzero;fill:rgb(100%,100%,99.607843%);fill-opacity:1;" d="M 1.925781 26.605469 C 3.808594 28.996094 5.917969 32.332031 7.542969 35.980469 C 50.558594 132.4375 93.59375 228.886719 136.335938 325.519531 C 139.042969 331.644531 140.621094 339.273438 140.648438 346.214844 C 140.9375 419.53125 140.800781 492.847656 140.660156 567.242188 C 94.398438 568.320312 48.261719 568.320312 1.925781 568.320312 C 1.925781 388.109375 1.925781 207.898438 1.925781 26.605469 Z M 1.925781 26.605469 "/>
<path style=" stroke:none;fill-rule:nonzero;fill:rgb(99.607843%,99.607843%,99.607843%);fill-opacity:1;" d="M 284.023438 2.320312 C 246.238281 91.65625 207.546875 180.992188 168.570312 270.992188 C 167.445312 269.757812 166.320312 269.039062 165.832031 267.917969 C 127.707031 179.957031 89.628906 91.964844 51.761719 3.144531 C 129.027344 2.320312 206.074219 2.320312 284.023438 2.320312 Z M 284.023438 2.320312 "/>
</g>
</svg>
